<svg xmlns="http://www.w3.org/2000/svg" width="192" height="192" viewBox="0 0 192 192">
  <defs>
    <linearGradient id="fade" x1="90" y1="126" x2="154.97" y2="190.97" gradientUnits="userSpaceOnUse">
      <stop offset="0.32" stop-opacity="0.15"/><stop offset="0.62" stop-opacity="0.02"/><stop offset="1" stop-opacity="0"/></linearGradient>
    <linearGradient id="note" x1="0" y1="16" x2="0" y2="84" gradientUnits="userSpaceOnUse">
      <stop offset="0" stop-color="#f3b171"/><stop offset="0.45" stop-color="#da645f"/><stop offset="1" stop-color="#163bca"/></linearGradient>
    <filter id="shadow" x="-20%" y="-20%" width="160%" height="160%">
      <feDropShadow dx="0" dy="8" stdDeviation="8" flood-color="black" flood-opacity="0.2"/></filter>
    <clipPath id="tileclip"><rect x="8" y="8" width="176" height="176" rx="40"/></clipPath>
  </defs>
  <rect x="8" y="8" width="176" height="176" rx="40" fill="#ffffff"/><g clip-path="url(#tileclip)"><g transform="translate(-14 30) scale(0.95)">
    <g filter="url(#shadow)">
      <path fill="#e2e2e2" d="M177.94,160H56V100H177.94a8,8,0,0,1,8,8v44A8,8,0,0,1,177.94,160Z"/>
      <rect fill="#999" x="70.01" y="115" width="30" height="30"/>
      <rect fill="#999" x="107.51" y="115" width="30" height="30"/>
      <rect fill="#999" x="145" y="115" width="30" height="30"/>
      <polygon fill="#959595" points="124 32 56 100 56 160 124 92 124 32"/>
      <path fill="#f6f6f6" d="M124,92H16a8,8,0,0,1-8-8V40a8,8,0,0,1,8-8H124Z"/>
      <rect fill="#163bca" x="20" y="44.53" width="30" height="30"/>
      <rect fill="#da645f" x="56" y="44.53" width="58.02" height="30"/>
      <polygon fill="url(#fade)" points="116 100 56 160 185.94 160 185.94 153.94 132 100 116 100"/>
    </g>
    </g></g><g transform="translate(-6 8) translate(96 96) scale(0.98) translate(-96 -96)">
    <g fill="url(#note)" stroke="#ffffff" stroke-width="5" paint-order="stroke" stroke-linejoin="round">
      <path d="M150 20 L150 74 A 19 14.5 -20 1 0 158 86 L158 42 C 170 44 180 52 178 66 C 186 50 178 28 150 20 Z"/>
    </g></g>
</svg>
